<svg width="25.000000" height="21.000000" viewBox="0 0 25 21" fill="none" xmlns="http://www.w3.org/2000/svg" xmlns:xlink="http://www.w3.org/1999/xlink">
	<desc>
			Created with Pixso.
	</desc>
	<defs/>
	<rect id="Rectangle 40" x="0.500000" y="0.500000" width="24.000000" height="2.000000" stroke="#B84C74" stroke-opacity="1.000000" stroke-width="1.000000"/>
	<rect id="Rectangle 41" x="2.500000" y="5.500000" width="20.000000" height="3.000000" stroke="#B84C74" stroke-opacity="1.000000" stroke-width="1.000000"/>
	<rect id="Rectangle 46" x="2.500000" y="8.500000" width="20.000000" height="3.000000" stroke="#B84C74" stroke-opacity="1.000000" stroke-width="1.000000"/>
	<rect id="Rectangle 48" x="2.500000" y="11.500000" width="20.000000" height="3.000000" stroke="#B84C74" stroke-opacity="1.000000" stroke-width="1.000000"/>
	<rect id="Rectangle 49" x="2.500000" y="14.500000" width="20.000000" height="3.000000" stroke="#B84C74" stroke-opacity="1.000000" stroke-width="1.000000"/>
	<rect id="Rectangle 50" x="2.500000" y="17.500000" width="20.000000" height="3.000000" stroke="#B84C74" stroke-opacity="1.000000" stroke-width="1.000000"/>
	<path id="Line 24" d="M4.5 2L4.5 6" stroke="#B84C74" stroke-opacity="1.000000" stroke-width="1.000000"/>
	<line id="Line 26" x1="4.500000" y1="6.000000" x2="4.500000" y2="7.000000" stroke="#B84C74" stroke-opacity="1.000000" stroke-width="1.000000"/>
	<line id="Line 28" x1="4.500000" y1="9.000000" x2="4.500000" y2="10.000000" stroke="#B84C74" stroke-opacity="1.000000" stroke-width="1.000000"/>
	<line id="Line 30" x1="4.500000" y1="11.045410" x2="4.500000" y2="11.799316" stroke="#B84C74" stroke-opacity="1.000000" stroke-width="1.000000"/>
	<line id="Line 32" x1="4.500000" y1="14.060547" x2="4.500000" y2="14.814453" stroke="#B84C74" stroke-opacity="1.000000" stroke-width="1.000000"/>
	<line id="Line 34" x1="4.500000" y1="18.000000" x2="4.500000" y2="19.000000" stroke="#B84C74" stroke-opacity="1.000000" stroke-width="1.000000"/>
	<line id="Line 36" x1="4.500000" y1="15.000000" x2="4.500000" y2="16.000000" stroke="#B84C74" stroke-opacity="1.000000" stroke-width="1.000000"/>
	<line id="Line 38" x1="4.500000" y1="12.000000" x2="4.500000" y2="13.000000" stroke="#B84C74" stroke-opacity="1.000000" stroke-width="1.000000"/>
	<path id="Line 24" d="M20.49 2L20.49 5.5" stroke="#B84C74" stroke-opacity="1.000000" stroke-width="1.000000"/>
	<line id="Line 26" x1="20.499878" y1="6.000000" x2="20.499878" y2="7.000000" stroke="#B84C74" stroke-opacity="1.000000" stroke-width="1.000000"/>
	<line id="Line 28" x1="20.499878" y1="9.000000" x2="20.499878" y2="10.000000" stroke="#B84C74" stroke-opacity="1.000000" stroke-width="1.000000"/>
	<line id="Line 34" x1="20.499878" y1="18.000000" x2="20.499878" y2="19.000000" stroke="#B84C74" stroke-opacity="1.000000" stroke-width="1.000000"/>
	<line id="Line 36" x1="20.499878" y1="15.000000" x2="20.499878" y2="16.000000" stroke="#B84C74" stroke-opacity="1.000000" stroke-width="1.000000"/>
	<line id="Line 38" x1="20.499878" y1="12.000000" x2="20.499878" y2="13.000000" stroke="#B84C74" stroke-opacity="1.000000" stroke-width="1.000000"/>
</svg>
