<svg width="26.999939" height="27.000000" viewBox="0 0 26.9999 27" fill="none" xmlns="http://www.w3.org/2000/svg" xmlns:xlink="http://www.w3.org/1999/xlink">
	<desc>
			Created with Pixso.
	</desc>
	<defs/>
	<rect id="Rectangle 25" x="2.499939" y="0.500000" width="24.000000" height="2.000000" stroke="#B84C74" stroke-opacity="1.000000" stroke-width="1.000000"/>
	<path id="Subtract" d="M3.99 2L24.99 2L24.99 23L3.99 23L3.99 2ZM4.99 22L4.99 3L23.99 3L23.99 22L4.99 22Z" fill="#B84C74" fill-opacity="1.000000" fill-rule="evenodd"/>
	<path id="Ellipse 35" d="M5 13.85C5.49 13.71 5.95 13.46 6.35 13.14C7.06 12.56 7.55 11.76 7.8 10.89C8.07 9.95 8.05 8.98 7.8 8.1C7.53 7.16 7.01 6.39 6.35 5.86C5.93 5.51 5.47 5.27 5 5.14C4.67 5.04 4.33 5 4 5L4 5L4 9.5L4 13L4 14C4.34 14 4.68 13.95 5 13.85ZM5 12.79Q5.38 12.64 5.71 12.36L5.71 12.36Q5.77 12.32 5.82 12.27Q6.15 11.97 6.4 11.58Q6.41 11.58 6.41 11.57Q6.69 11.13 6.84 10.61Q6.92 10.33 6.96 10.04Q7 9.76 7 9.48Q6.99 9.15 6.94 8.83Q6.9 8.61 6.84 8.38Q6.68 7.83 6.38 7.38Q6.12 6.98 5.78 6.68Q5.74 6.66 5.71 6.63Q5.38 6.35 5 6.2L5 9.5L5 12.79Z" fill="#B84C74" fill-opacity="1.000000" fill-rule="evenodd"/>
	<path id="Ellipse 36" d="M22.85 22C22.71 21.5 22.46 21.05 22.14 20.64C21.56 19.93 20.76 19.44 19.89 19.19C18.95 18.92 17.98 18.94 17.1 19.19C16.17 19.46 15.39 19.98 14.86 20.64C14.51 21.06 14.27 21.52 14.14 22C14.04 22.32 14 22.66 14 22.99L14 23L18.5 23L23 23C23 22.65 22.95 22.31 22.85 22ZM21.79 22Q21.64 21.61 21.36 21.28L21.36 21.28Q21.32 21.22 21.27 21.17Q20.97 20.84 20.58 20.59Q20.58 20.58 20.57 20.58Q20.13 20.3 19.61 20.15Q19.33 20.07 19.04 20.03Q18.76 19.99 18.48 19.99Q18.15 20 17.83 20.05Q17.61 20.09 17.38 20.15Q16.83 20.31 16.38 20.61Q15.98 20.87 15.68 21.22Q15.66 21.25 15.63 21.28Q15.35 21.61 15.2 22L18.5 22L21.79 22Z" fill="#B84C74" fill-opacity="1.000000" fill-rule="evenodd"/>
	<circle id="Ellipse 37" cx="20.500000" cy="6.500000" r="2.000000" stroke="#B84C74" stroke-opacity="1.000000" stroke-width="1.000000"/>
	<circle id="Ellipse 38" cx="8.500000" cy="18.500000" r="2.000000" stroke="#B84C74" stroke-opacity="1.000000" stroke-width="1.000000"/>
	<circle id="Ellipse 39" cx="16.500000" cy="13.500000" r="3.000000" stroke="#B84C74" stroke-opacity="1.000000" stroke-width="1.000000"/>
	<line id="Line 71" x1="12.500000" y1="3.000000" x2="12.500000" y2="22.000000" stroke="#B84C74" stroke-opacity="1.000000" stroke-width="1.000000"/>
	<line id="Line 75" x1="16.500000" y1="3.000000" x2="16.500000" y2="22.000000" stroke="#B84C74" stroke-opacity="1.000000" stroke-width="1.000000"/>
	<line id="Line 77" x1="20.500000" y1="3.000000" x2="20.500000" y2="22.000000" stroke="#B84C74" stroke-opacity="1.000000" stroke-width="1.000000"/>
	<line id="Line 74" x1="8.500000" y1="3.000000" x2="8.500000" y2="22.000000" stroke="#B84C74" stroke-opacity="1.000000" stroke-width="1.000000"/>
</svg>
