<svg width="25.000000" height="25.070801" viewBox="0 0 25 25.0708" fill="none" xmlns="http://www.w3.org/2000/svg" xmlns:xlink="http://www.w3.org/1999/xlink">
	<desc>
			Created with Pixso.
	</desc>
	<defs/>
	<path id="Rectangle 23" d="M1.18 17.64C1.28 16.72 2.05 16.02 2.98 16.02L4.69 16.02C5.62 16.02 6.39 16.72 6.48 17.64L6.89 21.69C7.07 23.5 5.65 25.07 3.83 25.07C2.02 25.07 0.6 23.5 0.78 21.69L1.18 17.64ZM3.16 17.02L4.51 17.02Q4.7 17.02 4.87 17.08Q5.04 17.15 5.18 17.28Q5.33 17.41 5.41 17.57Q5.49 17.73 5.51 17.92L5.89 21.79Q5.92 22.05 5.88 22.31Q5.85 22.49 5.8 22.66Q5.73 22.84 5.64 23.01Q5.53 23.21 5.37 23.38Q5.21 23.56 5.02 23.69Q4.86 23.8 4.69 23.88Q4.52 23.96 4.35 24Q4.1 24.07 3.83 24.07Q3.57 24.07 3.32 24Q3.15 23.96 2.98 23.88Q2.8 23.8 2.65 23.69Q2.46 23.56 2.3 23.38Q2.14 23.21 2.03 23.01Q1.93 22.84 1.87 22.66Q1.81 22.49 1.79 22.31Q1.75 22.05 1.77 21.79L2.16 17.92Q2.18 17.73 2.26 17.57Q2.34 17.41 2.49 17.28Q2.63 17.15 2.8 17.08Q2.96 17.02 3.16 17.02Z" fill="#417A82" fill-opacity="1.000000" fill-rule="evenodd"/>
	<circle id="Ellipse 19" cx="3.839233" cy="19.417480" r="1.130653" fill="#417A82" fill-opacity="1.000000"/>
	<rect id="Rectangle 25" x="0.500000" y="0.500000" width="24.000000" height="2.000000" stroke="#417A82" stroke-opacity="1.000000" stroke-width="1.000000"/>
	<path id="Line 11" d="M22.51 3L22.51 22" stroke="#417A82" stroke-opacity="1.000000" stroke-width="1.000000"/>
	<path id="Line 12" d="M17.53 5L17.53 20" stroke="#417A82" stroke-opacity="1.000000" stroke-width="1.000000"/>
	<line id="Line 13" x1="14.500000" y1="5.000000" x2="14.500000" y2="20.075195" stroke="#417A82" stroke-opacity="1.000000" stroke-width="1.000000"/>
	<line id="Line 14" x1="11.500000" y1="5.000000" x2="11.500000" y2="20.075195" stroke="#417A82" stroke-opacity="1.000000" stroke-width="1.000000"/>
	<path id="Line 15" d="M8.5 5L8.5 19.04" stroke="#417A82" stroke-opacity="1.000000" stroke-width="1.000000"/>
	<path id="Line 16" d="M5.5 5L5.5 15" stroke="#417A82" stroke-opacity="1.000000" stroke-width="1.000000"/>
	<path id="Subtract" d="M2 14.92L2 4L20.92 4L20.92 22L8 22L8 21L20.42 21L20.42 21.5L19.92 21.5L19.92 4.5L20.42 4.5L20.42 5L2.5 5L2.5 4.5L3 4.5L3 14.92L2 14.92Z" fill="#417A82" fill-opacity="1.000000" fill-rule="evenodd"/>
</svg>
