<svg width="25.000000" height="21.075195" viewBox="0 0 25 21.0752" fill="none" xmlns="http://www.w3.org/2000/svg" xmlns:xlink="http://www.w3.org/1999/xlink">
	<desc>
			Created with Pixso.
	</desc>
	<defs/>
	<path id="Rectangle 33" d="M22 5.5L23.06 2L1.95 2L2.25 3L3 5.5L2 8.5L3 11.5L2 14.5L3 17.5L2.24 20.07L1.95 21.07L23.06 21.07L22.76 20.07L22 17.5L23 14.5L22 11.5L23 8.5L22 5.5ZM21.94 8.5L20.95 5.51L21.71 3L3.29 3L4.04 5.51L3.05 8.5L4.05 11.5L3.05 14.5L4.04 17.48L3.28 20.07L21.72 20.07L20.95 17.48L21.94 14.5L20.94 11.5L21.94 8.5Z" fill="#B84C74" fill-opacity="1.000000" fill-rule="evenodd"/>
	<rect id="Rectangle 40" x="0.500000" y="0.500000" width="24.000000" height="2.000000" stroke="#B84C74" stroke-opacity="1.000000" stroke-width="1.000000"/>
	<path id="Line 60" d="M3 5.5L21.5 5.5" stroke="#B84C74" stroke-opacity="1.000000" stroke-width="1.000000"/>
	<path id="Line 67" d="M3.5 11.5L21.5 11.5" stroke="#B84C74" stroke-opacity="1.000000" stroke-width="1.000000"/>
	<line id="Line 65" x1="2.708496" y1="14.500000" x2="22.306458" y2="14.500000" stroke="#B84C74" stroke-opacity="1.000000" stroke-width="1.000000"/>
	<line id="Line 66" x1="2.708557" y1="20.575195" x2="22.306519" y2="20.575195" stroke="#B84C74" stroke-opacity="1.000000" stroke-width="1.000000"/>
	<line id="Line 61" x1="3.000000" y1="8.500000" x2="22.597961" y2="8.500000" stroke="#B84C74" stroke-opacity="1.000000" stroke-width="1.000000"/>
	<path id="Line 63" d="M3.5 17.5L21.5 17.5" stroke="#B84C74" stroke-opacity="1.000000" stroke-width="1.000000"/>
</svg>
