<svg width="25.000000" height="23.000000" viewBox="0 0 25 23" fill="none" xmlns="http://www.w3.org/2000/svg" xmlns:xlink="http://www.w3.org/1999/xlink">
	<desc>
			Created with Pixso.
	</desc>
	<defs/>
	<rect id="Rectangle 35" x="0.500000" y="20.500000" width="24.000000" height="2.000000" stroke="#B84C74" stroke-opacity="1.000000" stroke-width="1.000000"/>
	<rect id="Rectangle 54" x="2.500000" y="18.500000" width="20.000000" height="2.000000" stroke="#B84C74" stroke-opacity="1.000000" stroke-width="1.000000"/>
	<path id="Rectangle 52" d="M19.33 8.12C19.81 8.78 20.62 9.5 21.87 9.5C24.21 9.5 25 7.33 25 7.33L23 2L2 2L0 7.33C0 7.33 0.78 9.5 3.12 9.5C4.37 9.5 5.18 8.78 5.66 8.12C6.07 7.54 6.25 7 6.25 7C6.25 7 6.42 7.54 6.83 8.12C7.31 8.78 8.12 9.5 9.37 9.5C10.62 9.5 11.43 8.78 11.91 8.12C12.32 7.54 12.5 7 12.5 7C12.5 7 12.67 7.54 13.08 8.12C13.56 8.78 14.37 9.5 15.62 9.5C16.87 9.5 17.68 8.78 18.16 8.12C18.57 7.54 18.75 7 18.75 7C18.75 7 18.92 7.54 19.33 8.12ZM1.08 7.28L2.69 3L22.3 3L23.91 7.28Q23.79 7.47 23.65 7.65Q23.61 7.7 23.57 7.74Q23.24 8.11 22.82 8.3Q22.39 8.5 21.87 8.5Q21.53 8.5 21.22 8.39Q20.66 8.19 20.22 7.63Q19.98 7.33 19.81 6.96Q19.73 6.79 19.7 6.7L17.79 6.7Q17.76 6.79 17.68 6.96Q17.51 7.33 17.27 7.63Q16.83 8.19 16.27 8.39Q15.96 8.5 15.62 8.5Q15.28 8.5 14.97 8.39Q14.41 8.19 13.97 7.63Q13.73 7.33 13.56 6.96Q13.48 6.79 13.45 6.7L11.54 6.7Q11.51 6.79 11.43 6.96Q11.26 7.33 11.02 7.63Q10.58 8.19 10.02 8.39Q9.71 8.5 9.37 8.5Q9.03 8.5 8.72 8.39Q8.16 8.19 7.72 7.63Q7.48 7.33 7.31 6.96Q7.23 6.79 7.2 6.7L5.29 6.7Q5.26 6.79 5.18 6.96Q5.01 7.33 4.77 7.63Q4.33 8.19 3.77 8.39Q3.46 8.5 3.12 8.5Q2.6 8.5 2.17 8.3Q1.75 8.11 1.42 7.74Q1.38 7.7 1.34 7.65Q1.2 7.48 1.08 7.28Z" fill="#B84C74" fill-opacity="1.000000" fill-rule="evenodd"/>
	<line id="Line 68" x1="2.500000" y1="9.000000" x2="2.500000" y2="18.000000" stroke="#B84C74" stroke-opacity="1.000000" stroke-width="1.000000"/>
	<line id="Line 69" x1="22.500000" y1="9.000000" x2="22.500000" y2="18.000000" stroke="#B84C74" stroke-opacity="1.000000" stroke-width="1.000000"/>
	<rect id="Rectangle 53" x="2.500000" y="0.500000" width="20.000000" height="2.000000" stroke="#B84C74" stroke-opacity="1.000000" stroke-width="1.000000"/>
	<line id="Line 70" x1="1.000000" y1="6.500000" x2="24.000000" y2="6.500000" stroke="#B84C74" stroke-opacity="1.000000" stroke-width="1.000000"/>
</svg>
