<svg width="22.105347" height="21.859375" viewBox="0 0 22.1053 21.8594" fill="none" xmlns="http://www.w3.org/2000/svg" xmlns:xlink="http://www.w3.org/1999/xlink">
	<desc>
			Created with Pixso.
	</desc>
	<defs/>
	<path id="Rectangle 39" d="M17.95 15.82L18.48 17.71L17.95 21.85L8.45 21.85L7.92 17.71L8.45 15.82L17.95 15.82ZM8.94 17.78L9.33 20.85L17.07 20.85L17.46 17.78L17.19 16.82L9.21 16.82L8.94 17.78Z" fill="#417A82" fill-opacity="1.000000" fill-rule="evenodd"/>
	<line id="Line 78" x1="8.190918" y1="18.319092" x2="18.190918" y2="18.319092" stroke="#417A82" stroke-opacity="1.000000" stroke-width="1.000000"/>
	<path id="Rectangle 55" d="M15.19 10.09L15.19 15.81L11.19 15.81L11.19 9.29L15.19 10.09ZM16.19 9.27L10.19 8.07L10.19 16.81L16.19 16.81L16.19 9.27Z" fill="#417A82" fill-opacity="1.000000" fill-rule="evenodd"/>
	<path id="Rectangle 56" d="M18.58 3.43C20.52 3.82 21.78 5.71 21.4 7.66C21.01 9.6 19.11 10.87 17.17 10.48L6.39 8.32C5.31 8.11 4.61 7.05 4.82 5.97L5.45 2.84C5.66 1.76 6.72 1.06 7.8 1.27L18.58 3.43ZM18.38 4.41C19.78 4.69 20.7 6.06 20.41 7.46C20.13 8.87 18.77 9.78 17.36 9.5L6.59 7.34C6.05 7.23 5.69 6.71 5.8 6.17L6.43 3.04C6.54 2.5 7.06 2.15 7.6 2.25L18.38 4.41Z" fill="#417A82" fill-opacity="1.000000" fill-rule="evenodd"/>
	<line id="Line 79" x1="19.510864" y1="4.286133" x2="18.357544" y2="10.053955" stroke="#417A82" stroke-opacity="1.000000" stroke-width="1.000000"/>
	<line id="Line 80" x1="7.962708" y1="1.921387" x2="6.681213" y2="8.330078" stroke="#417A82" stroke-opacity="1.000000" stroke-width="1.000000"/>
	<path id="Rectangle 57" d="M6.55 2.36L5.66 6.84L4.43 6.6C3.35 6.38 2.64 5.33 2.86 4.25L2.97 3.68C3.19 2.6 4.24 1.9 5.33 2.11L6.55 2.36ZM5.38 3.14L4.87 5.67L4.63 5.62C4.08 5.51 3.73 4.98 3.84 4.44L3.95 3.88C4.06 3.34 4.59 2.98 5.13 3.09L5.38 3.14Z" fill="#417A82" fill-opacity="1.000000" fill-rule="evenodd"/>
	<line id="Line 81" x1="3.627441" y1="4.285889" x2="0.670898" y2="3.694580" stroke="#417A82" stroke-opacity="1.000000" stroke-width="1.000000"/>
</svg>
